<?xml version="1.0" encoding="UTF-8" standalone="no"?>
<!DOCTYPE svg PUBLIC "-//W3C//DTD SVG 1.1//EN" "http://www.w3.org/Graphics/SVG/1.1/DTD/svg11.dtd">
<svg width="100%" height="100%" viewBox="0 0 128 128" version="1.1" xmlns="http://www.w3.org/2000/svg" xmlns:xlink="http://www.w3.org/1999/xlink" xml:space="preserve" xmlns:serif="http://www.serif.com/" style="fill-rule:evenodd;clip-rule:evenodd;stroke-linejoin:round;stroke-miterlimit:2;">
    <rect id="Artboard1" x="0" y="0" width="128" height="128" style="fill:none;"/>
    <g id="Artboard11" serif:id="Artboard1">
        <g transform="matrix(1,0,0,1,2.35824,4.20507)">
            <path d="M28.682,23.534C31.81,19.485 35.435,15.747 39.465,12.446C51.396,2.67 64.441,2.57 76.164,6.909C90.048,12.048 101.379,24.394 103.491,27.368C111.458,38.585 115.874,52.027 115.862,64.807L116.58,68.013C116.578,69.614 117.483,85.02 108.857,98.838L105.652,102.889L102.073,105.899C99.171,107.923 95.508,109.59 91.242,110.659C85.343,112.137 77.941,112.389 70.56,111.553C66.43,111.729 61.434,111.656 56.029,110.987C42.563,109.318 26.719,104.008 15.504,91.52C4.098,78.817 4.302,56.898 15.612,38.648C19.107,33.009 23.55,27.838 28.682,23.534ZM87.969,46.779L84.906,39.583L79.483,32.792L74.445,29.141L67.574,26.6C60.533,25.156 49.439,25.81 36.205,40.405L33.098,44.602L30.91,49.381L29.807,54.348L29.705,59.093C30.165,65.605 33.431,72.616 38.16,78.505C43.88,85.63 51.408,90.958 53.436,92.028L56.546,93.31L60.563,93.987C63.085,94.09 70.228,92.977 77.157,89.482C84.377,85.841 90.915,79.779 93.577,73.092L95.205,65.971L94.442,58.251L91.44,51.37C90.522,49.882 89.384,48.342 87.969,46.779Z" style="fill:rgb(34,139,230);"/>
        </g>
    </g>
</svg>
